<svg id="Group_81813" data-name="Group 81813" xmlns="http://www.w3.org/2000/svg" xmlns:xlink="http://www.w3.org/1999/xlink" width="18.662" height="32.676" viewBox="0 0 18.662 32.676">
  <defs>
    <clipPath id="clip-path">
      <rect id="Rectangle_35295" data-name="Rectangle 35295" width="18.662" height="32.676" fill="none"/>
    </clipPath>
  </defs>
  <g id="Group_81812" data-name="Group 81812" transform="translate(0)" clip-path="url(#clip-path)">
    <path id="Path_81622" data-name="Path 81622" d="M13.034,16.355,7.519,10.831Q4.2,7.512.891,4.192A2.679,2.679,0,0,1,.016,2.627,2.439,2.439,0,0,1,1.251.274,2.273,2.273,0,0,1,3.889.607c.951.931,1.883,1.882,2.823,2.824q5.518,5.524,11.04,11.047a2.777,2.777,0,0,1,.878,1.538,2.249,2.249,0,0,1-.7,2.035q-2.339,2.341-4.673,4.687C10.208,25.8,7.144,28.843,4.1,31.914a2.474,2.474,0,0,1-3.049.412,2.328,2.328,0,0,1-.318-3.647l3.655-3.656,8.451-8.452c.063-.063.119-.133.192-.216" transform="translate(0 0)" fill="#1a1818"/>
  </g>
</svg>
