<svg xmlns="http://www.w3.org/2000/svg" xmlns:xlink="http://www.w3.org/1999/xlink" width="18.662" height="32.675" viewBox="0 0 18.662 32.675">
  <defs>
    <clipPath id="clip-path">
      <rect id="Rectangle_35295" data-name="Rectangle 35295" width="18.662" height="32.675" fill="none"/>
    </clipPath>
  </defs>
  <g id="Group_81812" data-name="Group 81812" clip-path="url(#clip-path)">
    <path id="Path_81622" data-name="Path 81622" d="M5.627,16.355l5.515-5.524q3.314-3.32,6.627-6.64a2.679,2.679,0,0,0,.875-1.564A2.439,2.439,0,0,0,17.411.274a2.273,2.273,0,0,0-2.639.333c-.951.931-1.883,1.882-2.823,2.824Q6.43,8.956.909,14.478a2.777,2.777,0,0,0-.878,1.538,2.249,2.249,0,0,0,.7,2.035Q3.067,20.392,5.4,22.738c3.053,3.058,6.116,6.105,9.157,9.176a2.474,2.474,0,0,0,3.049.412,2.327,2.327,0,0,0,.318-3.647L14.27,25.023,5.819,16.571c-.063-.063-.119-.133-.192-.216" transform="translate(0 0)" fill="#1a1818"/>
  </g>
</svg>
