<?xml version="1.0" encoding="UTF-8"?>
<svg id="Layer_1" data-name="Layer 1" xmlns="http://www.w3.org/2000/svg" viewBox="0 0 50 50">
  <path d="m44.89,28.45v16.72c0,1.55-.52,2.87-1.76,3.85-1.56,1.23-3.66,1.27-5.29.15-3.43-2.38-6.89-4.74-10.32-7.12-.63-.44-1.24-.89-1.87-1.32-.6-.41-.71-.41-1.31,0-1.68,1.18-3.38,2.34-5.06,3.51l-6.93,4.81c-1.4.97-2.92,1.28-4.51.56-1.56-.72-2.46-1.98-2.66-3.7-.04-.37-.05-.76-.05-1.14V12.48c.01-3.04.92-5.77,2.9-8.11C9.94,2.08,12.39.69,15.35.2c.77-.13,1.59-.17,2.39-.19C22.69,0,27.64,0,32.6,0c2.87.01,5.49.85,7.71,2.68,2.55,2.12,4.09,4.83,4.47,8.16.07.68.09,1.36.09,2.04.01,5.18.01,10.36.01,15.56Z"/>
</svg>