<?xml version="1.0" encoding="UTF-8"?>
<svg id="Layer_1" data-name="Layer 1" xmlns="http://www.w3.org/2000/svg" viewBox="0 0 50 50">
  <path d="m44.72,28.42c0,5.53,0,11.06,0,16.6,0,1.54-.51,2.84-1.74,3.81-1.55,1.22-3.63,1.27-5.24.15-3.41-2.36-6.83-4.71-10.25-7.07-.62-.43-1.22-.88-1.85-1.31-.6-.41-.71-.41-1.3,0-1.67,1.16-3.35,2.32-5.02,3.48-2.29,1.59-4.58,3.18-6.88,4.77-1.39.97-2.9,1.27-4.48.55-1.55-.71-2.44-1.96-2.63-3.67-.04-.37-.05-.75-.05-1.13,0-10.68,0-21.35,0-32.03,0-3.02.91-5.72,2.87-8.04C10.06,2.27,12.49.89,15.42.4c.78-.13,1.58-.18,2.37-.18,4.92-.02,9.84-.02,14.76,0,2.84.01,5.44.84,7.63,2.66,2.53,2.1,4.06,4.79,4.44,8.09.08.67.1,1.35.1,2.02,0,5.14,0,10.29,0,15.43h0Zm-35.62-.12s0,0-.01,0c0,5.44,0,10.88,0,16.33,0,.26,0,.52.02.77.04.44.46.71.86.55.14-.06.27-.16.4-.25,2.07-1.43,4.13-2.86,6.19-4.29,1.94-1.35,3.88-2.7,5.81-4.05,1.7-1.19,3.67-1.05,5.03-.12,1.46.98,2.89,2,4.33,3.01,2.65,1.84,5.3,3.67,7.95,5.51.26.18.53.33.85.15.32-.17.35-.48.35-.8,0-.48,0-.95,0-1.43,0-10.51,0-21.01,0-31.52,0-.34-.02-.68-.06-1.01-.51-3.99-4.09-7.15-8.19-7.13-5.14.02-10.27,0-15.41,0-.38,0-.75.04-1.13.08-1.7.22-3.15.99-4.39,2.16-1.65,1.56-2.61,3.47-2.62,5.77-.02,5.42,0,10.84,0,16.27Z"/>
</svg>