<svg id="Group_377" data-name="Group 377" xmlns="http://www.w3.org/2000/svg" xmlns:xlink="http://www.w3.org/1999/xlink" width="11.643" height="22.444" viewBox="0 0 11.643 22.444">
  <defs>
    <clipPath id="clip-path">
      <rect id="Rectangle_155" data-name="Rectangle 155" width="11.643" height="22.444" transform="translate(0 0)" fill="none"/>
    </clipPath>
  </defs>
  <g id="Group_376" data-name="Group 376" transform="translate(0 0)" clip-path="url(#clip-path)">
    <path id="Path_1078" data-name="Path 1078" d="M9.724,0c.377.03.755.058,1.132.089.261.021.521.046.788.07v3.57c-.122,0-.236,0-.35,0-.738.011-1.477,0-2.213.04A1.408,1.408,0,0,0,7.586,5.245c-.044.977-.01,1.957-.01,2.969h3.935l-.516,4H7.568v10.23H3.443V12.223H0V8.229H3.439c0-.113,0-.2,0-.282,0-1.045-.022-2.092.021-3.136A5,5,0,0,1,4.771,1.458,4.562,4.562,0,0,1,7.241.136C7.5.083,7.755.045,8.013,0Z" transform="translate(0 0)" fill="#2258a0"/>
  </g>
</svg>
