<svg xmlns="http://www.w3.org/2000/svg" width="9.829" height="18.23" viewBox="0 0 9.829 18.23">
  <path id="Path_69386" data-name="Path 69386" d="M-217.008,466.474c-.72,0-1.385,0-2.049,0-.638,0-.674-.039-.676-.692q0-1.159,0-2.317c0-.66.037-.694.718-.7.65,0,1.3,0,2.007,0,0-.6-.023-1.141.006-1.685a10.081,10.081,0,0,1,.186-1.809,3.919,3.919,0,0,1,3.754-3.061c.889-.044,1.782-.01,2.673-.018.338,0,.486.157.485.489q-.006,1.27,0,2.54c0,.342-.17.474-.5.476-.624,0-1.248.008-1.87.041s-.844.279-.858.9c-.015.667,0,1.335,0,2.072H-211c1,0,1,0,1,1.013,0,.728-.011,1.456,0,2.183.009.4-.166.559-.561.553-.843-.012-1.686,0-2.583,0v.561q0,3.319,0,6.639c0,.7-.064.759-.766.761q-1.181,0-2.362,0c-.682,0-.743-.06-.744-.732q0-3.32,0-6.639Z" transform="translate(219.734 -456.189)" fill="#fff"/>
</svg>
