<svg id="Group_519" data-name="Group 519" xmlns="http://www.w3.org/2000/svg" xmlns:xlink="http://www.w3.org/1999/xlink" width="22.693" height="19.873" viewBox="0 0 22.693 19.873">
  <defs>
    <clipPath id="clip-path">
      <rect id="Rectangle_221" data-name="Rectangle 221" width="22.693" height="19.873" fill="#2764b7"/>
    </clipPath>
  </defs>
  <g id="Group_518" data-name="Group 518" clip-path="url(#clip-path)">
    <path id="Path_1125" data-name="Path 1125" d="M22.694,7.07c-.1.476-.159.961-.292,1.426a11.927,11.927,0,0,1-2.3,4.157,30.754,30.754,0,0,1-6.158,5.641c-.683.491-1.4.939-2.093,1.412a.82.82,0,0,1-.988,0,34.561,34.561,0,0,1-7.867-6.561A13.1,13.1,0,0,1,.37,8.8,6.526,6.526,0,0,1,4.277.443a6.379,6.379,0,0,1,6.886,1.473,2.075,2.075,0,0,0,.246.233.806.806,0,0,1,.123-.239A6.323,6.323,0,0,1,18.166.362a6.338,6.338,0,0,1,4.446,5.213c.032.172.055.346.083.52Zm-21.284-.5-.059.011c.1.534.164,1.08.313,1.6a10.362,10.362,0,0,0,2.14,3.74A33.266,33.266,0,0,0,11.22,18.26a.194.194,0,0,0,.253,0,36.914,36.914,0,0,0,6.278-5.073,15.269,15.269,0,0,0,2.713-3.622A6.2,6.2,0,0,0,21.241,6a5.15,5.15,0,0,0-6.15-4.46A5.065,5.065,0,0,0,11.98,3.549a.759.759,0,0,1-.75.368.844.844,0,0,1-.555-.4A5.142,5.142,0,0,0,1.409,6.566" transform="translate(0 0)" fill="#2764b7"/>
  </g>
</svg>
