<?xml version="1.0" encoding="UTF-8"?>
<svg id="Layer_2" data-name="Layer 2" xmlns="http://www.w3.org/2000/svg" viewBox="0 0 51.6 36.14">
  <defs>
    <style>
      .cls-1 {
        fill: #fff;
      }
    </style>
  </defs>
  <g id="Layer_1-2" data-name="Layer 1">
    <g>
      <path class="cls-1" d="m25.78,5.18c-7.64,0-15.28,0-22.92,0-.77,0-1.49-.12-2.07-.68C.03,3.77-.22,2.62.2,1.58.61.55,1.42.07,2.5,0c.15,0,.3,0,.45,0,15.27,0,30.54,0,45.81,0,.39,0,.79.04,1.16.15,1.15.35,1.78,1.45,1.65,2.79-.11,1.16-.99,2.05-2.15,2.19-.24.03-.48.04-.72.04-7.64,0-15.28,0-22.92,0Z"/>
      <path class="cls-1" d="m25.78,20.66c-7.63,0-15.26,0-22.89,0-.63,0-1.25-.06-1.79-.43-.92-.63-1.31-1.8-.98-2.95.3-1.05,1.21-1.74,2.39-1.79.17,0,.34,0,.51,0,15.24,0,30.48,0,45.72,0,.42,0,.85.04,1.25.17,1.13.38,1.74,1.48,1.59,2.81-.13,1.15-1,2.02-2.15,2.15-.24.03-.48.04-.72.04-7.64,0-15.28,0-22.92,0Z"/>
      <path class="cls-1" d="m25.79,36.13c-7.64,0-15.28,0-22.92,0-.77,0-1.49-.12-2.07-.67-.77-.73-1.02-1.88-.61-2.93.41-1.03,1.22-1.51,2.3-1.58.18-.01.36,0,.54,0,15.23,0,30.46,0,45.68,0,.66,0,1.29.07,1.84.47.88.64,1.25,1.81.92,2.92-.32,1.07-1.16,1.71-2.36,1.79-.15,0-.3,0-.45,0-7.63,0-15.26,0-22.89,0Z"/>
    </g>
  </g>
</svg>