<?xml version="1.0" encoding="UTF-8"?>
<svg id="Layer_2" data-name="Layer 2" xmlns="http://www.w3.org/2000/svg" viewBox="0 0 20.99 27.99">
  <defs>
    <style>
      .cls-1 {
        fill: #4470b7;
      }
    </style>
  </defs>
  <g id="Layer_1-2" data-name="Layer 1">
    <path class="cls-1" d="m10.42,0c2.53.09,4.61.78,6.43,2.19,2.06,1.59,3.36,3.66,3.9,6.21.21.96.3,1.94.19,2.92-.12,1.12-.38,2.2-.77,3.26-.49,1.35-1.13,2.62-1.85,3.86-.58,1-1.21,1.95-1.89,2.89-.97,1.35-2.01,2.66-3.13,3.9-.78.86-1.59,1.69-2.4,2.52-.34.35-.5.34-.84,0-1.2-1.19-2.37-2.42-3.44-3.73-1.19-1.45-2.32-2.95-3.33-4.53-1.08-1.69-2.02-3.46-2.66-5.38C.32,13.09.09,12.05.02,10.99c-.06-.83.03-1.65.19-2.46C.8,5.64,2.33,3.37,4.78,1.73,6.09.86,7.54.33,9.1.12c.51-.07,1.03-.1,1.32-.12Zm-.07,15.31c2.53.14,4.85-1.96,4.96-4.58.1-2.64-1.92-4.92-4.61-5.03-2.72-.11-4.86,1.99-5.01,4.53-.15,2.73,1.99,5.03,4.66,5.08Z"/>
  </g>
</svg>