<?xml version="1.0" encoding="UTF-8"?>
<svg id="Layer_2" data-name="Layer 2" xmlns="http://www.w3.org/2000/svg" viewBox="0 0 64.4 64.57">
  <defs>
    <style>
      .cls-1 {
        fill: #4470b7;
      }
    </style>
  </defs>
  <g id="Layer_1-2" data-name="Layer 1">
    <path class="cls-1" d="m49.39,64.57c-4.04-.2-8.12-1.67-12.02-3.68-9.2-4.73-16.87-11.38-23.65-19.11-4.53-5.17-8.42-10.76-11.18-17.09C1.23,21.72.28,18.63.04,15.39c-.23-3.13.44-5.98,2.87-8.25,1.75-1.63,3.39-3.38,5.09-5.06,2.76-2.72,6.52-2.79,9.32-.08,2.93,2.83,5.82,5.7,8.64,8.65,3.29,3.44,2.23,8.21-2.14,10.04-3.46,1.45-4.84,4.28-3.67,7.83,1.48,4.48,4.45,7.95,7.92,11,2.31,2.03,4.83,3.77,7.8,4.73,3.36,1.08,6.67-.26,7.79-3.57,1.24-3.7,6.45-5.91,10.25-2.09,2.85,2.86,5.73,5.67,8.54,8.56,2.59,2.66,2.6,6.45.03,9.16-1.94,2.04-3.94,4.02-5.97,5.97-1.87,1.8-4.22,2.31-7.12,2.31Z"/>
  </g>
</svg>