<svg xmlns="http://www.w3.org/2000/svg" xmlns:xlink="http://www.w3.org/1999/xlink" width="15.909" height="18.273" viewBox="0 0 15.909 18.273">
  <defs>
    <clipPath id="clip-path">
      <rect id="Rectangle_220" data-name="Rectangle 220" width="15.909" height="18.273" fill="none"/>
    </clipPath>
  </defs>
  <g id="Group_514" data-name="Group 514" clip-path="url(#clip-path)">
    <path id="Path_1124" data-name="Path 1124" d="M13.243,0c.126.028.253.053.379.084a2.99,2.99,0,0,1-.282,5.865,2.923,2.923,0,0,1-2.479-.788c-.052-.048-.1-.1-.163-.156L5.782,8.051a3.037,3.037,0,0,1,0,2.171l4.912,3.042c.1-.091.2-.184.3-.271a2.989,2.989,0,1,1,2.346,5.248.6.6,0,0,0-.1.032H12.6a7.383,7.383,0,0,1-.931-.282,2.959,2.959,0,0,1-1.6-3.6.217.217,0,0,0-.113-.307Q7.637,12.662,5.33,11.225c-.035-.022-.071-.041-.121-.07a2.984,2.984,0,0,1-2.679.934A2.871,2.871,0,0,1,.674,11.02,2.974,2.974,0,0,1,.927,6.976a3.01,3.01,0,0,1,4.289.142l.6-.371Q7.906,5.452,10,4.159a.159.159,0,0,0,.082-.226,2.983,2.983,0,0,1,2.438-3.9A.48.48,0,0,0,12.6,0Zm-.321,17.178a1.9,1.9,0,1,0-1.9-1.882,1.9,1.9,0,0,0,1.9,1.882m-1.9-14.193a1.9,1.9,0,1,0,1.893-1.891,1.9,1.9,0,0,0-1.893,1.891M1.1,9.129A1.9,1.9,0,1,0,3.009,7.24,1.893,1.893,0,0,0,1.1,9.129" transform="translate(0.001)"/>
  </g>
</svg>
