<svg id="Group_80951" data-name="Group 80951" xmlns="http://www.w3.org/2000/svg" xmlns:xlink="http://www.w3.org/1999/xlink" width="21.757" height="17.791" viewBox="0 0 21.757 17.791">
  <defs>
    <clipPath id="clip-path">
      <rect id="Rectangle_34560" data-name="Rectangle 34560" width="21.757" height="17.791" fill="#fff"/>
    </clipPath>
  </defs>
  <g id="Group_80136" data-name="Group 80136" clip-path="url(#clip-path)">
    <path id="Path_68799" data-name="Path 68799" d="M6.591,13.919a4.61,4.61,0,0,1-4.2-3.116,5.209,5.209,0,0,0,1.982-.084A4.638,4.638,0,0,1,.839,6.261,4.286,4.286,0,0,0,2.807,6.8l.035-.035c-.044-.03-.091-.058-.133-.092A4.918,4.918,0,0,1,1.143,4.541,3.922,3.922,0,0,1,.862,2.95,4.854,4.854,0,0,1,1.455.906.436.436,0,0,1,1.506.846a12.624,12.624,0,0,0,9.207,4.646c-.028-.166-.057-.312-.077-.46a4.313,4.313,0,0,1,.419-2.489,4.316,4.316,0,0,1,3.483-2.5,4.365,4.365,0,0,1,3.393.966,3.166,3.166,0,0,1,.348.33.186.186,0,0,0,.2.061A9.514,9.514,0,0,0,21.025.435.511.511,0,0,1,21.175.37a4.159,4.159,0,0,1-1.881,2.4,2.879,2.879,0,0,0,.83-.113c.276-.068.552-.139.822-.225s.532-.194.812-.3a.746.746,0,0,1-.045.091,8.3,8.3,0,0,1-2.069,2.154.2.2,0,0,0-.09.187c-.014.578,0,1.159-.058,1.732a13.46,13.46,0,0,1-1.519,4.9,12.443,12.443,0,0,1-3.048,3.76A11.843,11.843,0,0,1,9.619,17.5a13.253,13.253,0,0,1-3.489.269A12.742,12.742,0,0,1,.242,15.941C.163,15.893.081,15.85,0,15.79A10.253,10.253,0,0,0,3.462,15.5a9.391,9.391,0,0,0,3.129-1.58" transform="translate(0 0)" fill="#fff"/>
  </g>
</svg>
