<svg id="Group_375" data-name="Group 375" xmlns="http://www.w3.org/2000/svg" xmlns:xlink="http://www.w3.org/1999/xlink" width="27.348" height="22.445" viewBox="0 0 27.348 22.445">
  <defs>
    <clipPath id="clip-path">
      <rect id="Rectangle_154" data-name="Rectangle 154" width="27.348" height="22.445" fill="none"/>
    </clipPath>
  </defs>
  <g id="Group_374" data-name="Group 374" clip-path="url(#clip-path)">
    <path id="Path_1077" data-name="Path 1077" d="M1.746,1.052c.2.035.263.224.374.348A17.722,17.722,0,0,0,4.563,3.684,16.191,16.191,0,0,0,7.949,5.657,15.223,15.223,0,0,0,11.87,6.776c.384.055.773.077,1.155.151.244.047.457.012.438-.321.021-.087-.038-.126-.1-.165-.018-.284-.058-.569-.049-.853a2.243,2.243,0,0,1,.133-.8c.057-.14-.013-.318.032-.483a7.04,7.04,0,0,1,.538-1.324A5.305,5.305,0,0,1,15.1,1.509,4.883,4.883,0,0,1,16.878.379,6.4,6.4,0,0,1,18.7,0,5.665,5.665,0,0,1,21.464.55a5.1,5.1,0,0,1,1.55,1.1c.171.186.338.053.487.022A11,11,0,0,0,26.516.5a.627.627,0,0,1,.12-.049c.014,0,.033.009.066.02a5.47,5.47,0,0,1-1.611,2.41c-.031,0-.05.016-.044.051l-.722.553A10.077,10.077,0,0,0,27.3,2.712l.046.034c.016.162-.121.243-.191.359s-.157.244-.235.366l-.047.041c-.417.458-.844.9-1.3,1.324-.036-.009-.049.005-.042.04a4.449,4.449,0,0,1-.607.473.479.479,0,0,0-.273.514,5.644,5.644,0,0,1-.007,1.105c-.073.476-.058.956-.149,1.436-.079.422-.15.856-.211,1.286-.079.561-.3,1.081-.423,1.629a6.988,6.988,0,0,1-.437,1.248,18.8,18.8,0,0,1-.923,1.838A16.779,16.779,0,0,1,20.9,16.752a16.815,16.815,0,0,1-2.209,2.181,14.745,14.745,0,0,1-2.944,1.906A15.374,15.374,0,0,1,12.062,22.1a16.463,16.463,0,0,1-2.156.3,20.8,20.8,0,0,1-2.312.027,14.176,14.176,0,0,1-2.134-.271,14.976,14.976,0,0,1-2.88-.85A14.022,14.022,0,0,1,0,19.955a11.764,11.764,0,0,0,7.431-1.84.07.07,0,0,0,.041-.032c.192-.179.466-.251.664-.512A5.806,5.806,0,0,1,4.28,15.825,5.617,5.617,0,0,1,2.966,13.64a1.179,1.179,0,0,1,.291.017,5.736,5.736,0,0,0,1.8-.035c.053-.008.137-.06.141-.1.009-.083-.074-.092-.145-.112a5.271,5.271,0,0,1-2.14-1.163A5.773,5.773,0,0,1,1.06,9.092a4.039,4.039,0,0,1-.114-1.2,6.094,6.094,0,0,0,2.477.682C.993,6.507.288,4.041,1.7,1.094l.043-.043m3.545,12.49.05-.041c-.012-.009-.028-.027-.037-.024a.185.185,0,0,0-.049.036l.036.03" transform="translate(0 0)" fill="#2258a0"/>
  </g>
</svg>
