<?xml version="1.0" encoding="UTF-8"?>
<svg id="Layer_1" data-name="Layer 1" xmlns="http://www.w3.org/2000/svg" viewBox="0 0 50 50">
  <path d="m25.29,8.46c.43-.48.92-1.14,1.52-1.67,3.96-3.52,8.55-4.58,13.56-2.99,5.07,1.61,8.23,5.21,9.3,10.41.92,4.49-.14,8.66-3.36,11.96-6.64,6.81-13.43,13.47-20.16,20.19-.75.74-1.55.74-2.3-.01-6.7-6.7-13.49-13.32-20.06-20.15C0,22.26-.93,17.38.93,12.22,2.77,7.1,6.56,4.04,11.94,3.24c4.34-.64,8.21.63,11.45,3.66.52.49,1.03.99,1.54,1.48.02.02.06.01.36.08Zm-.15,35.1c.29-.37.47-.68.73-.93,5.4-5.38,10.82-10.76,16.22-16.14.8-.8,1.63-1.59,2.37-2.45,3.69-4.3,3.51-10.52-.4-14.71-3.68-3.94-9.95-4.51-14.35-1.21-1.26.95-2.32,2.16-3.48,3.25-.87.81-1.52.82-2.37.01-.89-.85-1.74-1.76-2.65-2.58-5.09-4.63-13.08-3.47-16.67,2.39-2.72,4.45-1.98,9.84,1.94,13.78,5.93,5.96,11.89,11.89,17.83,17.84.2.2.42.39.82.76Z"/>
</svg>