<?xml version="1.0" encoding="UTF-8"?>
<svg id="Layer_1" data-name="Layer 1" xmlns="http://www.w3.org/2000/svg" viewBox="0 0 50 50">
  <path d="m49.68,14.22c-1.07-5.2-4.23-8.8-9.3-10.41-5.01-1.59-9.61-.53-13.56,2.99-.6.53-1.08,1.19-1.52,1.67-.3-.06-.34-.06-.36-.07-.52-.49-1.02-1-1.54-1.48-3.24-3.03-7.11-4.31-11.45-3.66C6.56,4.04,2.77,7.1.93,12.22-.93,17.38,0,22.26,3.8,26.2c6.57,6.83,13.36,13.45,20.06,20.15.75.75,1.55.76,2.3.01,6.73-6.72,13.52-13.38,20.16-20.19,3.22-3.3,4.28-7.47,3.36-11.96Z"/>
</svg>