<svg xmlns="http://www.w3.org/2000/svg" width="25.498" height="18.202" viewBox="0 0 25.498 18.202">
  <path id="Path_69387" data-name="Path 69387" d="M-508.657,507.651c2.572,0,5.144-.006,7.716,0a4.78,4.78,0,0,1,5.025,4.988q.019,4.107,0,8.215a4.782,4.782,0,0,1-5.025,4.992q-7.717.007-15.433,0a4.786,4.786,0,0,1-5.021-5q-.017-4.107,0-8.215a4.765,4.765,0,0,1,5.022-4.984C-513.8,507.645-511.229,507.651-508.657,507.651Zm-3.33,13.022,6.674-3.916-6.674-3.9Z" transform="translate(521.404 -507.649)" fill="#fff"/>
</svg>
