<svg id="Group_379" data-name="Group 379" xmlns="http://www.w3.org/2000/svg" xmlns:xlink="http://www.w3.org/1999/xlink" width="29.684" height="22.444" viewBox="0 0 29.684 22.444">
  <defs>
    <clipPath id="clip-path">
      <rect id="Rectangle_156" data-name="Rectangle 156" width="29.683" height="22.444" fill="none"/>
    </clipPath>
  </defs>
  <g id="Group_378" data-name="Group 378" clip-path="url(#clip-path)">
    <path id="Path_1079" data-name="Path 1079" d="M0,8.562c.039-.615.081-1.23.115-1.846A12.268,12.268,0,0,1,.58,3.665,4.449,4.449,0,0,1,4.718.342C6.062.218,7.415.172,8.765.118Q15.439-.146,22.112.17a33.562,33.562,0,0,1,3.375.254A4.442,4.442,0,0,1,29.207,4a21.605,21.605,0,0,1,.413,4.285,67.052,67.052,0,0,1-.187,8.912A6.082,6.082,0,0,1,28.3,20.4a4.082,4.082,0,0,1-2.945,1.65c-1.662.143-3.331.222-5,.293-4.179.177-8.359.1-12.536-.068a30.764,30.764,0,0,1-3.8-.337A4.243,4.243,0,0,1,.462,18.461a20.671,20.671,0,0,1-.4-3.821c-.016-.249-.038-.5-.058-.747V8.562M15.482,1.694c-2.729.065-4.8.1-6.86.17-1.273.043-2.547.1-3.816.218A2.693,2.693,0,0,0,2.3,4a10.164,10.164,0,0,0-.449,2.759,77.409,77.409,0,0,0-.05,7.962A13.59,13.59,0,0,0,2.2,18.188a2.961,2.961,0,0,0,.725,1.361,2.982,2.982,0,0,0,1.834.766c1.018.1,2.038.184,3.06.225,4.671.187,9.343.231,14.015.009,1.108-.053,2.219-.1,3.321-.23A2.475,2.475,0,0,0,27.3,18.63a9.469,9.469,0,0,0,.508-2.893,77.327,77.327,0,0,0,.049-7.962,14.165,14.165,0,0,0-.388-3.5A2.869,2.869,0,0,0,26.519,2.7,3.619,3.619,0,0,0,24.4,2.033c-3.193-.132-6.386-.244-8.918-.339" transform="translate(0 0)" fill="#2258a0"/>
    <path id="Path_1080" data-name="Path 1080" d="M152.467,89.81c0-1.139,0-2.279,0-3.418a1.215,1.215,0,0,1,1.909-1.135c2.1,1.145,4.195,2.3,6.295,3.443a1.226,1.226,0,0,1,0,2.26q-3.15,1.687-6.3,3.38a1.215,1.215,0,0,1-1.9-1.14c0-1.13,0-2.259,0-3.389m1.754-2.657v5.3l4.882-2.625-4.882-2.672" transform="translate(-141.401 -78.877)" fill="#2258a0"/>
  </g>
</svg>
